<svg width="32" height="32" viewBox="0 0 32 32" fill="none" xmlns="http://www.w3.org/2000/svg">
  <circle cx="16" cy="16" r="16" fill="#1a1a1a"/>
  <circle cx="16" cy="16" r="15" stroke="#00D9FF" stroke-width="2"/>
  <path d="M13.71 7.95C15.24 7.95 16.77 7.95 18.34 7.95C18.62 8.62 18.89 9.3 19.18 10C19.8 11.52 20.44 13.03 21.13 14.52C21.4 15.1 21.66 15.69 21.89 16.29C22.2 17.07 22.55 17.85 22.9 18.62C23.24 19.37 23.58 20.12 23.88 20.89C24.14 21.54 24.42 22.18 24.71 22.82C24.76 22.92 24.8 23.01 24.85 23.11C25.03 23.51 25.21 23.91 25.4 24.32C25.53 24.61 25.67 24.91 25.8 25.21C25.88 25.38 25.96 25.56 26.04 25.74C26.22 26.18 26.22 26.18 26.22 26.65C25.05 26.65 23.87 26.65 22.67 26.65C21.86 24.95 21.1 23.23 20.36 21.5C20.27 21.3 20.18 21.09 20.09 20.89C20.04 20.79 20 20.69 19.95 20.58C19.61 19.79 19.27 19.01 18.92 18.22C17.91 15.94 16.96 13.65 16.02 11.35C15.76 11.74 15.57 12.09 15.38 12.51C15.32 12.65 15.25 12.78 15.19 12.93C15.12 13.08 15.05 13.22 14.98 13.38C14.91 13.53 14.84 13.68 14.77 13.84C14.31 14.86 13.88 15.88 13.46 16.92C13.18 17.6 12.88 18.28 12.57 18.95C11.83 20.52 11.15 22.12 10.45 23.72C13.26 23.72 16.06 23.72 18.95 23.72C18.77 24.7 18.58 25.68 18.34 26.65C14.21 26.65 10.08 26.65 5.82 26.65C5.99 25.61 5.99 25.61 6.24 25.07C6.29 24.95 6.35 24.83 6.4 24.71C6.46 24.58 6.52 24.45 6.58 24.32C6.71 24.04 6.84 23.76 6.97 23.48C7.03 23.34 7.1 23.2 7.17 23.06C7.46 22.41 7.74 21.76 8.02 21.11C8.59 19.76 9.17 18.42 9.75 17.07C10.56 15.22 11.35 13.36 12.14 11.5C12.4 10.9 12.66 10.29 12.92 9.69C12.98 9.55 13.04 9.41 13.1 9.27C13.18 9.08 13.18 9.08 13.27 8.89C13.34 8.72 13.34 8.72 13.42 8.55C13.5 8.35 13.6 8.15 13.71 7.95Z" fill="white"/>
</svg>
