<svg width="180" height="180" viewBox="0 0 180 180" fill="none" xmlns="http://www.w3.org/2000/svg">
<rect width="180" height="180" rx="90" fill="black"/>
<path d="M77.0753 33.3887C85.6674 33.3887 94.2596 33.3887 103.112 33.3887C104.669 37.1836 106.227 40.9784 107.831 44.8883C111.343 53.4109 114.924 61.884 118.783 70.2565C120.292 73.5385 121.721 76.8302 123.047 80.1907C124.795 84.6189 126.734 88.9455 128.715 93.2736C130.646 97.4914 132.545 101.703 134.234 106.024C135.683 109.697 137.266 113.3 138.899 116.893C139.147 117.439 139.395 117.984 139.65 118.546C140.678 120.808 141.709 123.069 142.745 125.327C143.511 126.998 144.27 128.672 145.029 130.346C145.479 131.331 145.93 132.317 146.394 133.332C147.375 135.801 147.375 135.801 147.375 138.404C140.788 138.404 134.2 138.404 127.413 138.404C122.854 128.861 118.62 119.188 114.433 109.477C113.938 108.328 113.443 107.18 112.947 106.031C112.702 105.463 112.457 104.895 112.205 104.31C110.292 99.8812 108.344 95.4684 106.387 91.0591C100.723 78.2949 95.3821 65.4059 90.0937 52.4824C88.6424 54.6593 87.5821 56.6339 86.5035 58.9984C86.1486 59.7759 85.7937 60.5534 85.4281 61.3544C85.0524 62.1857 84.6767 63.017 84.2896 63.8736C83.9011 64.73 83.5125 65.5865 83.1122 66.469C80.5355 72.1844 78.0935 77.94 75.745 83.7521C74.182 87.5971 72.5043 91.3645 70.7288 95.1179C66.5854 103.966 62.7452 112.954 58.8494 121.914C74.6017 121.914 90.3541 121.914 106.584 121.914C105.579 127.441 104.475 132.955 103.112 138.404C79.9133 138.404 56.7144 138.404 32.8125 138.404C33.7881 132.55 33.7881 132.55 35.1992 129.532C35.5083 128.86 35.8173 128.189 36.1358 127.497C36.4711 126.782 36.8065 126.068 37.152 125.332C37.8721 123.765 38.5908 122.197 39.3082 120.629C39.6746 119.83 40.041 119.031 40.4185 118.207C42.06 114.584 43.6237 110.929 45.18 107.268C48.4054 99.6977 51.6676 92.1434 54.9439 84.5946C59.457 74.1922 63.9396 63.777 68.3963 53.3503C69.8421 49.9688 71.2887 46.5877 72.7358 43.2068C73.0711 42.4219 73.4065 41.637 73.752 40.8283C74.2156 39.7452 74.2156 39.7452 74.6885 38.6401C75.098 37.6824 75.098 37.6824 75.5157 36.7054C76.0054 35.5861 76.5289 34.4814 77.0753 33.3887Z" fill="white"/>
</svg>
