<svg width="739" height="196" viewBox="0 0 739 196" fill="none" xmlns="http://www.w3.org/2000/svg">
<path d="M223.205 36.2605C235.915 46.2972 241.953 57.3234 244.205 73.4532C244.296 76.0117 244.342 78.5418 244.335 81.0995C244.337 82.2114 244.337 82.2114 244.34 83.3458C244.344 85.7824 244.342 88.219 244.338 90.6556C244.339 92.3607 244.34 94.0657 244.341 95.7708C244.343 99.3407 244.34 102.911 244.336 106.481C244.33 111.036 244.333 115.592 244.339 120.148C244.343 123.669 244.342 127.19 244.339 130.712C244.339 132.39 244.339 134.069 244.342 135.748C244.354 147.088 244.791 160.386 239.58 170.48C232.96 182.932 226 188.98 209.846 193.312C203.687 195.098 197.787 195.219 191.432 195.182C190.508 195.18 189.584 195.179 188.633 195.177C185.699 195.172 182.765 195.159 179.83 195.146C177.834 195.141 175.838 195.137 173.842 195.132C168.963 195.121 164.084 195.104 159.205 195.083C158.034 192.447 156.868 189.808 155.705 187.167C155.372 186.417 155.038 185.667 154.694 184.894C154.22 183.815 154.22 183.815 153.737 182.715C153.443 182.051 153.15 181.388 152.848 180.705C152.205 179 152.205 179 152.205 176.99C153.481 176.98 154.756 176.971 156.07 176.961C160.847 176.921 165.623 176.855 170.4 176.781C172.459 176.753 174.518 176.731 176.577 176.717C194.485 176.883 203.5 174.98 210.58 169.765C216.672 165.278 220.524 149.79 220.33 137.284C220.321 136.17 220.312 135.055 220.303 133.907C220.28 131.179 220.247 128.452 220.205 125.724C219.539 126.441 218.873 127.157 218.186 127.895C208.41 138.198 197.628 145.448 183 146.81C169.954 147.069 160 145.302 147.83 136.027C143.865 131.686 140.923 126.907 138.205 121.703C137.814 120.957 137.422 120.21 137.018 119.441C132.246 109.567 131.899 99.2095 132.018 88.4057C132.019 87.2848 132.019 86.164 132.02 85.0092C132.107 68.5615 134.952 54.988 146.205 42.2917C165.042 24.1509 201.553 20.2122 223.205 36.2605Z" fill="white"/>
<path d="M358.123 37.3837C358.678 37.8346 359.362 38.2718 359.933 38.7364C360.82 39.3584 361.577 39.9941 362.49 40.6349C368.576 46.2565 372.618 53.2613 375.803 60.8647C376.199 61.8055 376.594 62.7462 377.002 63.7154C383.613 82.6016 385.5 105.094 374.305 121.68C363.344 136.53 356.289 139.155 343.428 144.297C329.074 148.775 309.549 148.848 295.803 142.412C294.676 141.889 291.965 140.815 290.805 140.276C280.305 134.245 277.305 132.737 269.803 123.188C269.131 122.104 268.46 121.021 267.768 119.905C259.407 105.027 259.842 84.0775 263.9 67.9792C268.088 53.1195 275.615 41.9211 288.865 33.7869C309.637 22.3955 338.855 22.7628 358.123 37.3837Z" fill="white"/>
<path d="M519 27.1899C528.9 27.1899 538.8 27.1899 549 27.1899C550.794 31.5852 552.589 35.9805 554.438 40.509C558.484 50.38 562.61 60.1935 567.056 69.8907C568.795 73.6919 570.441 77.5045 571.969 81.3966C573.983 86.5254 576.217 91.5365 578.5 96.5493C580.725 101.434 582.912 106.312 584.859 111.317C586.528 115.571 588.353 119.744 590.234 123.906C590.52 124.538 590.805 125.169 591.099 125.82C592.284 128.44 593.472 131.059 594.666 133.675C595.548 135.61 596.423 137.548 597.297 139.487C597.816 140.628 598.335 141.77 598.87 142.946C600 145.805 600 145.805 600 148.82C592.41 148.82 584.82 148.82 577 148.82C571.746 137.767 566.869 126.564 562.044 115.316C561.474 113.986 560.903 112.655 560.332 111.325C560.05 110.667 559.767 110.009 559.477 109.332C557.272 104.202 555.029 99.0914 552.774 93.9845C546.247 79.2008 540.093 64.2727 534 49.3045C532.328 51.8259 531.106 54.1128 529.863 56.8514C529.454 57.7519 529.046 58.6524 528.624 59.5802C528.191 60.543 527.759 61.5059 527.312 62.4979C526.865 63.4899 526.417 64.4819 525.956 65.5039C522.987 72.1236 520.173 78.7898 517.467 85.5215C515.666 89.9747 513.733 94.3382 511.688 98.6854C506.914 108.934 502.489 119.343 498 129.721C516.15 129.721 534.3 129.721 553 129.721C551.842 136.122 550.57 142.509 549 148.82C522.27 148.82 495.54 148.82 468 148.82C469.124 142.04 469.124 142.04 470.75 138.544C471.106 137.766 471.462 136.988 471.829 136.187C472.215 135.359 472.602 134.532 473 133.679C473.83 131.865 474.658 130.049 475.484 128.233C475.907 127.307 476.329 126.382 476.764 125.428C478.655 121.231 480.457 116.998 482.25 112.758C485.966 103.99 489.725 95.2403 493.5 86.4972C498.7 74.449 503.865 62.3861 509 50.3097C510.666 46.3933 512.333 42.4772 514 38.5614C514.386 37.6523 514.773 36.7432 515.171 35.8066C515.705 34.5521 515.705 34.5521 516.25 33.2722C516.722 32.163 516.722 32.163 517.203 31.0314C517.767 29.735 518.37 28.4555 519 27.1899Z" fill="white"/>
<path d="M53.7756 25.0654C54.9853 25.0707 56.195 25.076 57.4414 25.0814C58.7466 25.0846 60.0518 25.0879 61.3965 25.0912C62.7852 25.0996 64.1738 25.1081 65.5625 25.1167C66.9551 25.1218 68.3477 25.1263 69.7402 25.1305C73.1602 25.1424 76.5801 25.1589 80 25.1795C87.1091 41.0838 94.1977 56.9972 101.25 72.9269C101.592 73.6998 101.934 74.4726 102.287 75.2689C106.641 85.111 110.932 94.9759 115.118 104.892C117.197 109.8 119.36 114.656 121.625 119.481C124.12 124.796 126.565 130.129 128.938 135.501C129.244 136.185 129.551 136.869 129.868 137.574C131.149 140.496 132.5 143.077 132.5 146.307C128.896 146.395 126.105 146.26 122.5 146.307C121.476 146.332 118.555 146.281 117.5 146.307C116.517 146.317 115.513 146.297 114.5 146.307C113.594 146.323 113 146.307 112.36 146.147C110 145.805 110 145.805 108.357 144.649C106.56 142.186 105.41 139.654 104.18 136.86C103.649 135.664 103.119 134.467 102.573 133.235C102.007 131.938 101.441 130.641 100.875 129.344C100.285 128.005 99.6941 126.665 99.103 125.326C95.5414 117.24 92.0452 109.126 88.6062 100.986C84.8793 92.1842 81.0326 83.436 77.1875 74.6861C76.6971 73.57 76.6971 73.57 76.1968 72.4314C75.5578 70.9772 74.9185 69.5232 74.279 68.0692C73.6707 66.6859 73.063 65.3023 72.4559 63.9185C71.2091 61.0799 69.9524 58.2473 68.6626 55.4281L64.5 46.7915C64.0024 47.9387 58.5127 62.0699 58 63.2518C57.4818 64.4566 56.9636 65.6615 56.4297 66.9028C54.9576 70.3236 53.4784 73.7413 51.9976 77.1583C50.9413 79.5962 49.8865 82.0349 48.832 84.4736C45.1232 93.0498 41.4095 101.624 37.6875 110.194C37.2178 111.277 37.2178 111.277 36.7385 112.381C34.5136 117.501 32.2575 122.605 30 127.711C48.48 127.711 66.96 127.711 86 127.711C84.02 133.682 82.04 139.995 80 146.147C53.6 146.147 27.2 145.805 0 145.805C0.783331 141.867 1.56142 139.172 3.15234 135.603C3.59369 134.605 4.03503 133.607 4.48975 132.579C4.9675 131.512 5.44526 130.444 5.9375 129.344C6.94968 127.058 7.96139 124.771 8.97266 122.484C9.7386 120.758 9.7386 120.758 10.52 118.996C12.6653 114.143 14.7732 109.275 16.875 104.403C17.2752 103.476 17.6753 102.55 18.0876 101.595C20.4489 96.128 22.8063 90.6588 25.1641 85.1897C25.4366 84.5574 25.7092 83.9251 25.9901 83.2737C27.3826 80.0435 28.7745 76.813 30.1655 73.5822C32.7243 67.6404 35.2888 61.7014 37.875 55.7716C41.8324 46.6896 45.7619 37.6404 49.1602 28.3287C50.3838 25.2049 50.3838 25.2049 53.7756 25.0654Z" fill="white"/>
<path d="M339 49.3045C348.382 55.7547 353.294 63.8725 355.608 74.8858C356.33 79.6054 356.287 84.3079 356.25 89.0731C356.262 90.5649 356.262 90.5649 356.274 92.0868C356.246 102.698 354.134 112.728 347.024 120.949C338.661 128.939 330.564 131.347 319.26 131.2C310.19 130.817 303.381 127.963 296.75 121.66C293.807 118.312 291.734 114.724 290 110.622C289.741 110.022 289.482 109.423 289.215 108.804C286.532 101.845 286.484 95.0845 286.5 87.6909C286.458 85.8901 286.458 85.8901 286.414 84.053C286.388 71.8034 289.98 62.2122 298.586 53.4628C309.119 44.0916 326.383 42.8119 339 49.3045Z" fill="black"/>
<path d="M620 27.428H646.152C646.957 29.6256 647.609 32.0878 648.438 34.3521C653.329 46.9713 660.731 57.1024 670 66.8957C671.527 68.6073 673.048 70.3243 674.563 72.0474C675.224 72.7963 675.885 73.5453 676.567 74.3169C677.276 75.1216 677.276 75.1216 678 75.9426C694.669 64.8772 704.182 46.5292 711 28.1952C719.58 28.1952 728.16 28.1952 737 28.1952C735.577 34.6349 734.442 39.6451 731.375 45.158C731.023 45.805 730.67 46.4519 730.307 47.1184C726.996 53.063 723.188 58.5248 719 63.88C718.348 64.7404 717.696 65.6008 717.024 66.4873C708.843 76.9585 699.284 86.5032 689.207 95.1318C670.743 111.196 657.517 126.09 647 148.318C638.75 148.318 630 148.318 621.5 148.318C622.478 142.42 623.354 141.11 626.188 136.067C626.848 134.89 626.848 134.89 627.521 133.69C636.622 117.883 647.774 104.484 661 92.0259C659.106 87.89 656.313 85.0173 653.188 81.7853C620 46.5259 620 46.2613 620 27.428Z" fill="white"/>
<path d="M201.687 47.2314C211.472 53.3595 215.711 61.7371 218.582 72.6207C220.598 86.2227 220.342 101.138 212.875 112.947C209.26 117.766 205.281 120.878 200 123.69C199.386 124.031 198.772 124.372 198.14 124.723C190.419 128.321 180.517 127.975 172.625 125.135C164.262 121.187 158.461 115.208 155 106.602C150.23 92.5863 149.83 75.9848 156 62.3723C165.044 46.5209 184.69 39.552 201.687 47.2314Z" fill="black"/>
<path d="M416.498 26.1848L475.766 26.1849C475.766 26.1849 475.766 26.1849 475.498 44.7814C458.338 44.7814 441.178 45.2838 423.498 45.2838C423.498 78.7874 423.498 112.291 423.498 146.81C415.578 146.81 407.658 146.81 399.498 146.81C399.226 133.501 399.006 120.195 398.876 106.884C398.813 100.703 398.729 94.5234 398.592 88.3431C398.462 82.3727 398.39 76.4042 398.359 70.4325C398.337 68.1603 398.294 65.8883 398.229 63.617C397.713 44.8514 397.713 44.8514 402.144 39.4893C404.982 36.657 408.201 34.4822 411.498 32.2161C413.717 30.691 416.498 29.2455 416.498 26.1848Z" fill="white"/>
<path d="M519 27.1902C528.9 27.1902 538.8 27.1902 549 27.1902C550.794 31.5855 552.589 35.9807 554.438 40.5092C558.484 50.3802 562.61 60.1938 567.056 69.8909C568.795 73.6921 570.441 77.5047 571.969 81.3968C573.983 86.5256 576.217 91.5367 578.5 96.5496C580.725 101.435 582.912 106.313 584.859 111.317C586.528 115.571 588.353 119.744 590.234 123.906C590.52 124.538 590.805 125.17 591.099 125.821C592.284 128.44 593.472 131.059 594.666 133.675C595.548 135.61 596.423 137.548 597.297 139.487C597.816 140.628 598.335 141.77 598.87 142.946C600 145.805 600 145.805 600 148.82C592.41 148.82 584.82 148.82 577 148.82C571.746 137.767 566.869 126.564 562.044 115.316C561.474 113.986 560.903 112.656 560.332 111.325C560.05 110.667 559.767 110.01 559.477 109.332C557.272 104.203 555.029 99.0917 552.774 93.9848C546.247 79.2011 540.093 64.2729 534 49.3048C532.328 51.8261 531.106 54.1131 529.863 56.8517C529.454 57.7522 529.046 58.6527 528.624 59.5804C528.191 60.5433 527.759 61.5061 527.312 62.4981C526.865 63.4901 526.417 64.4821 525.956 65.5042C522.987 72.1238 520.173 78.7901 517.467 85.5217C515.666 89.975 513.733 94.3384 511.688 98.6856C506.914 108.934 502.489 119.344 498 129.721C516.15 129.721 534.3 129.721 553 129.721C551.842 136.122 550.57 142.509 549 148.82C522.27 148.82 495.54 148.82 468 148.82C469.124 142.04 469.124 142.04 470.75 138.544C471.106 137.767 471.462 136.989 471.829 136.187C472.215 135.36 472.602 134.532 473 133.679C473.83 131.865 474.658 130.049 475.484 128.233C475.907 127.308 476.329 126.382 476.764 125.428C478.655 121.232 480.457 116.998 482.25 112.759C485.966 103.99 489.725 95.2406 493.5 86.4975C498.7 74.4493 503.865 62.3864 509 50.31C510.666 46.3935 512.333 42.4775 514 38.5616C514.386 37.6525 514.773 36.7435 515.171 35.8069C515.705 34.5523 515.705 34.5523 516.25 33.2725C516.722 32.1633 516.722 32.1633 517.203 31.0316C517.767 29.7353 518.37 28.4558 519 27.1902Z" fill="white"/>
<path d="M711.999 103.585C722.483 114.102 732.21 129.722 736.999 143.794C736.999 144.789 738.499 147.292 738.499 148.317C730.249 148.317 720.499 148.317 711.999 148.317C710.679 145 711.134 142.988 707.999 136.757C703.484 127.782 697.196 119.593 690.726 111.961C688.999 109.616 687 108.611 688.999 106.601C692 105.093 695.162 104.827 698.249 103.962C699.122 103.706 699.995 103.449 700.894 103.185C701.738 102.951 702.583 102.718 703.453 102.478C704.228 102.257 705.003 102.036 705.801 101.808C708.53 101.519 709.714 102.112 711.999 103.585Z" fill="white"/>
<path d="M519.616 19.4268C519.616 19.4268 518.26 20.4259 520.069 19.927C521.877 19.4282 544.636 12.557 547.624 11.0136C548.979 10.3138 549.027 9.57291 548.965 0.0477489C548.965 0.0477489 547.986 -0.235919 546.706 0.620982C540.925 4.49013 520.97 18.4278 520.97 18.4278L519.616 19.4268Z" fill="white"/>
<path d="M696 106.6H689V109.616L694 110.621L696 106.6Z" fill="white"/>
</svg>
