<svg width="739" height="196" viewBox="0 0 739 196" fill="none" xmlns="http://www.w3.org/2000/svg">
<path d="M146.205 42.2925C165.042 24.1517 201.553 20.2129 223.205 36.2612C235.915 46.2979 241.953 57.3239 244.205 73.4536C244.295 76.0122 244.342 78.5424 244.334 81.1001C244.337 82.2119 244.337 82.2119 244.34 83.3462C244.344 85.7827 244.341 88.2192 244.338 90.6558C244.339 92.3607 244.34 94.066 244.341 95.771C244.342 99.3409 244.34 102.911 244.335 106.481C244.329 111.037 244.333 115.593 244.339 120.149C244.342 123.67 244.341 127.191 244.339 130.712C244.338 132.391 244.339 134.07 244.342 135.749C244.354 147.089 244.791 160.386 239.58 170.48C232.96 182.932 226 188.98 209.846 193.313C203.687 195.099 197.786 195.219 191.432 195.182C190.508 195.181 189.584 195.179 188.633 195.177C185.699 195.172 182.764 195.16 179.83 195.147C177.834 195.142 175.838 195.137 173.842 195.133C168.963 195.122 164.084 195.104 159.205 195.083C158.034 192.447 156.868 189.808 155.705 187.167C155.371 186.417 155.037 185.667 154.693 184.894C154.22 183.816 154.219 183.816 153.736 182.715C153.443 182.052 153.15 181.389 152.848 180.706C152.205 179.001 152.205 179 152.205 176.99C153.48 176.98 154.755 176.971 156.069 176.961C160.846 176.921 165.623 176.855 170.399 176.782C172.458 176.754 174.517 176.731 176.576 176.717C194.485 176.883 203.5 174.98 210.58 169.765C216.672 165.278 220.523 149.791 220.33 137.285C220.321 136.17 220.312 135.056 220.303 133.908C220.279 131.18 220.247 128.452 220.205 125.724C219.539 126.441 218.872 127.158 218.186 127.896C208.41 138.198 197.627 145.448 183 146.81C169.954 147.07 160 145.302 147.83 136.028C143.865 131.686 140.923 126.908 138.205 121.704L137.018 119.442C132.246 109.567 131.899 99.2096 132.018 88.4058L132.02 85.0093C132.106 68.5619 134.952 54.9886 146.205 42.2925ZM201.687 47.2319C184.689 39.5526 165.044 46.5212 155.999 62.3726C149.83 75.985 150.23 92.5869 154.999 106.602C158.46 115.208 164.261 121.187 172.624 125.135C180.516 127.975 190.419 128.322 198.14 124.723C198.772 124.372 199.385 124.031 199.999 123.69C205.28 120.878 209.259 117.766 212.874 112.947C220.342 101.138 220.598 86.2225 218.581 72.6206C215.71 61.7371 211.471 53.36 201.687 47.2319Z" fill="white"/>
<path d="M288.866 33.7865C309.637 22.3952 338.855 22.7633 358.123 37.3841C358.678 37.835 359.362 38.2721 359.933 38.7367C360.82 39.3586 361.577 39.9943 362.491 40.6351C368.577 46.2567 372.618 53.2613 375.803 60.8646C376.199 61.8053 376.595 62.746 377.002 63.7152C383.613 82.6013 385.5 105.094 374.305 121.68C363.344 136.53 356.289 139.156 343.428 144.297C329.074 148.775 309.549 148.848 295.803 142.412C294.677 141.889 291.966 140.815 290.805 140.276C280.305 134.245 277.305 132.737 269.803 123.188C269.132 122.105 268.46 121.021 267.768 119.905C259.407 105.027 259.841 84.077 263.9 67.9788C268.088 53.1192 275.615 41.9206 288.866 33.7865ZM339 49.304C326.383 42.8114 309.119 44.092 298.586 53.4632C289.981 62.2125 286.388 71.8036 286.414 84.0531C286.458 85.89 286.458 85.8901 286.5 87.6908C286.485 95.0841 286.532 101.845 289.215 108.804C289.482 109.422 289.741 110.023 290 110.622C291.734 114.724 293.807 118.311 296.75 121.66C303.382 127.962 310.19 130.817 319.26 131.2C330.564 131.347 338.662 128.94 347.024 120.95C354.134 112.729 356.246 102.698 356.274 92.0863L356.25 89.0726C356.288 84.3077 356.33 79.6054 355.608 74.8861C353.295 63.8727 348.383 55.7542 339 49.304Z" fill="white"/>
<path d="M519 27.1899C528.9 27.1899 538.8 27.1899 549 27.1899C550.794 31.5852 552.589 35.9805 554.438 40.509C558.484 50.38 562.61 60.1935 567.056 69.8907C568.795 73.6919 570.441 77.5045 571.969 81.3966C573.983 86.5254 576.217 91.5365 578.5 96.5493C580.725 101.434 582.912 106.312 584.859 111.317C586.528 115.571 588.353 119.744 590.234 123.906C590.52 124.538 590.805 125.169 591.099 125.82C592.284 128.44 593.472 131.059 594.666 133.675C595.548 135.61 596.423 137.548 597.297 139.487C597.816 140.628 598.335 141.77 598.87 142.946C600 145.805 600 145.805 600 148.82C592.41 148.82 584.82 148.82 577 148.82C571.746 137.767 566.869 126.564 562.044 115.316C561.474 113.986 560.903 112.655 560.332 111.325C560.05 110.667 559.767 110.009 559.477 109.332C557.272 104.202 555.029 99.0914 552.774 93.9845C546.247 79.2008 540.093 64.2727 534 49.3045C532.328 51.8259 531.106 54.1128 529.863 56.8514C529.454 57.7519 529.046 58.6524 528.624 59.5802C528.191 60.543 527.758 61.5059 527.312 62.4979C526.865 63.4899 526.417 64.4819 525.956 65.5039C522.987 72.1236 520.173 78.7898 517.467 85.5215C515.666 89.9747 513.733 94.3382 511.688 98.6854C506.914 108.934 502.489 119.343 498 129.721C516.15 129.721 534.3 129.721 553 129.721C551.842 136.122 550.57 142.509 549 148.82C522.27 148.82 495.54 148.82 468 148.82C469.124 142.04 469.124 142.04 470.75 138.544C471.106 137.766 471.462 136.988 471.829 136.187C472.215 135.359 472.602 134.532 473 133.679C473.83 131.865 474.658 130.049 475.484 128.233C475.907 127.307 476.329 126.382 476.764 125.428C478.655 121.231 480.457 116.998 482.25 112.758C485.966 103.99 489.725 95.2403 493.5 86.4972C498.7 74.449 503.865 62.3861 509 50.3097C510.666 46.3933 512.333 42.4772 514 38.5614C514.386 37.6523 514.773 36.7432 515.171 35.8066C515.705 34.5521 515.705 34.5521 516.25 33.2722C516.722 32.163 516.722 32.163 517.203 31.0314C517.767 29.735 518.37 28.4555 519 27.1899Z" fill="white"/>
<path d="M53.7756 25.0654C54.9853 25.0707 56.195 25.076 57.4414 25.0814C58.7466 25.0846 60.0518 25.0879 61.3965 25.0912C62.7852 25.0996 64.1738 25.1081 65.5625 25.1167C66.9551 25.1218 68.3477 25.1263 69.7402 25.1305C73.1602 25.1424 76.5801 25.1589 80 25.1795C87.1091 41.0838 94.1977 56.9972 101.25 72.9269C101.592 73.6998 101.934 74.4726 102.287 75.2689C106.641 85.111 110.932 94.9759 115.118 104.892C117.197 109.8 119.36 114.656 121.625 119.481C124.12 124.796 126.565 130.129 128.938 135.501C129.244 136.185 129.551 136.869 129.868 137.574C131.149 140.496 132.5 143.077 132.5 146.307C128.896 146.395 126.105 146.26 122.5 146.307C121.476 146.332 118.555 146.281 117.5 146.307C116.517 146.317 115.513 146.297 114.5 146.307C113.594 146.323 113 146.307 112.36 146.147C110 145.805 110 145.805 108.357 144.649C106.56 142.186 105.41 139.654 104.18 136.86C103.649 135.664 103.119 134.467 102.573 133.235C102.007 131.938 101.441 130.641 100.875 129.344C100.285 128.005 99.6941 126.665 99.103 125.326C95.5414 117.24 92.0452 109.126 88.6062 100.986C84.8793 92.1842 81.0326 83.436 77.1875 74.6861C76.6971 73.57 76.6971 73.57 76.1968 72.4314C75.5578 70.9772 74.9185 69.5232 74.279 68.0692C73.6707 66.6859 73.063 65.3023 72.4559 63.9185C71.2091 61.0799 69.9524 58.2473 68.6626 55.4281L64.5 46.7915C64.0024 47.9387 58.5127 62.0699 58 63.2518C57.4818 64.4566 56.9636 65.6615 56.4297 66.9028C54.9576 70.3236 53.4784 73.7413 51.9976 77.1583C50.9413 79.5962 49.8865 82.0349 48.832 84.4736C45.1232 93.0498 41.4095 101.624 37.6875 110.194C37.2178 111.277 37.2178 111.277 36.7385 112.381C34.5136 117.501 32.2575 122.605 30 127.711C48.48 127.711 66.96 127.711 86 127.711C84.02 133.682 82.04 139.995 80 146.147C53.6 146.147 27.2 145.805 0 145.805C0.783331 141.867 1.56142 139.172 3.15234 135.603C3.59369 134.605 4.03503 133.607 4.48975 132.579C4.9675 131.512 5.44526 130.444 5.9375 129.344C6.94968 127.058 7.96139 124.771 8.97266 122.484C9.7386 120.758 9.7386 120.758 10.52 118.996C12.6653 114.143 14.7732 109.275 16.875 104.403C17.2752 103.476 17.6753 102.55 18.0876 101.595C20.4489 96.128 22.8063 90.6588 25.1641 85.1897C25.4366 84.5574 25.7092 83.9251 25.9901 83.2737C27.3826 80.0435 28.7745 76.813 30.1655 73.5822C32.7243 67.6404 35.2888 61.7014 37.875 55.7716C41.8324 46.6896 45.7619 37.6404 49.1602 28.3287C50.3839 25.2049 50.3839 25.2049 53.7756 25.0654Z" fill="white"/>
<path d="M620 27.4282H646.152C646.957 29.6259 647.609 32.0881 648.438 34.3523C653.329 46.9716 660.731 57.1026 670 66.8959C671.527 68.6075 673.048 70.3245 674.563 72.0476C675.224 72.7966 675.885 73.5455 676.567 74.3172C677.276 75.1219 677.276 75.1219 678 75.9428C694.669 64.8775 704.182 46.5294 711 28.1954C719.58 28.1954 728.16 28.1954 737 28.1954C735.577 34.6352 734.442 39.6453 731.375 45.1583C731.023 45.8052 730.67 46.4521 730.307 47.1186C726.996 53.0633 723.188 58.525 719 63.8803C718.348 64.7407 717.696 65.6011 717.024 66.4876C708.843 76.9587 699.284 86.5035 689.207 95.1321C670.743 111.196 657.517 126.09 647 148.318C638.75 148.318 630 148.318 621.5 148.318C622.478 142.42 623.354 141.11 626.188 136.067C626.848 134.89 626.848 134.89 627.521 133.69C636.622 117.883 647.774 104.484 661 92.0261C659.106 87.8902 656.313 85.0175 653.188 81.7856C620 46.5261 620 46.2616 620 27.4282Z" fill="white"/>
<path d="M416.498 26.1851L475.766 26.1852C475.766 26.1852 475.766 26.1852 475.498 44.7817C458.338 44.7817 441.178 45.284 423.498 45.284C423.498 78.7876 423.498 112.291 423.498 146.81C415.578 146.81 407.658 146.81 399.498 146.81C399.226 133.502 399.006 120.195 398.876 106.885C398.813 100.703 398.729 94.5236 398.592 88.3433C398.462 82.3729 398.39 76.4044 398.359 70.4327C398.337 68.1606 398.294 65.8885 398.229 63.6172C397.713 44.8516 397.713 44.8516 402.144 39.4895C404.982 36.6572 408.201 34.4824 411.498 32.2163C413.717 30.6912 416.498 29.2458 416.498 26.1851Z" fill="white"/>
<path d="M519 27.1904C528.9 27.1904 538.8 27.1904 549 27.1904C550.794 31.5857 552.589 35.981 554.438 40.5094C558.484 50.3805 562.61 60.194 567.056 69.8912C568.795 73.6924 570.441 77.5049 571.969 81.3971C573.983 86.5259 576.217 91.537 578.5 96.5498C580.725 101.435 582.912 106.313 584.859 111.318C586.528 115.572 588.353 119.744 590.234 123.906C590.52 124.538 590.805 125.17 591.099 125.821C592.284 128.441 593.472 131.059 594.666 133.675C595.548 135.61 596.423 137.548 597.297 139.487C597.816 140.629 598.335 141.77 598.87 142.946C600 145.805 600 145.805 600 148.821C592.41 148.821 584.82 148.821 577 148.821C571.746 137.767 566.869 126.564 562.044 115.317C561.474 113.986 560.903 112.656 560.332 111.326C560.05 110.668 559.767 110.01 559.477 109.332C557.272 104.203 555.029 99.0919 552.774 93.985C546.247 79.2013 540.093 64.2732 534 49.305C532.328 51.8263 531.106 54.1133 529.863 56.8519C529.454 57.7524 529.046 58.6529 528.624 59.5807C528.191 60.5435 527.758 61.5064 527.312 62.4984C526.865 63.4904 526.417 64.4824 525.956 65.5044C522.987 72.1241 520.173 78.7903 517.467 85.522C515.666 89.9752 513.733 94.3387 511.688 98.6859C506.914 108.934 502.489 119.344 498 129.722C516.15 129.722 534.3 129.722 553 129.722C551.842 136.123 550.57 142.509 549 148.821C522.27 148.821 495.54 148.821 468 148.821C469.124 142.041 469.124 142.041 470.75 138.545C471.106 137.767 471.462 136.989 471.829 136.187C472.215 135.36 472.602 134.532 473 133.68C473.83 131.865 474.658 130.05 475.484 128.234C475.907 127.308 476.329 126.382 476.764 125.428C478.655 121.232 480.457 116.999 482.25 112.759C485.966 103.99 489.725 95.2408 493.5 86.4977C498.7 74.4495 503.865 62.3866 509 50.3102C510.666 46.3937 512.333 42.4777 514 38.5618C514.386 37.6528 514.773 36.7437 515.171 35.8071C515.705 34.5526 515.705 34.5526 516.25 33.2727C516.722 32.1635 516.722 32.1635 517.203 31.0319C517.767 29.7355 518.37 28.456 519 27.1904Z" fill="white"/>
<path d="M711.999 103.585C722.483 114.102 732.21 129.722 736.999 143.794C736.999 144.789 738.499 147.292 738.499 148.317C730.249 148.317 720.499 148.317 711.999 148.317C710.679 145 711.134 142.988 707.999 136.757C703.484 127.782 697.196 119.593 690.726 111.961C688.999 109.616 687 108.611 688.999 106.601C692 105.093 695.162 104.827 698.249 103.962C699.122 103.706 699.995 103.449 700.894 103.185C701.738 102.951 702.583 102.718 703.453 102.478C704.228 102.257 705.003 102.036 705.801 101.808C708.53 101.519 709.714 102.112 711.999 103.585Z" fill="white"/>
<path d="M519.616 19.4268C519.616 19.4268 518.26 20.4259 520.069 19.927C521.877 19.4282 544.636 12.557 547.624 11.0136C548.979 10.3138 549.027 9.57291 548.965 0.0477489C548.965 0.0477489 547.986 -0.235919 546.706 0.620982C540.925 4.49013 520.97 18.4278 520.97 18.4278L519.616 19.4268Z" fill="white"/>
<path d="M696 106.601H689V109.616L694 110.621L696 106.601Z" fill="white"/>
</svg>
