<svg width="1883" height="615" viewBox="0 0 1883 615" fill="none" xmlns="http://www.w3.org/2000/svg">
<path d="M208.485 14.9546L2.58594 400.892L201.51 400.802L272.119 322.065L125.724 322.177L207.62 170.113L329.664 399.689H412.545L208.485 14.9546Z" fill="white" stroke="#92919F" stroke-width="3.1"/>
<path d="M708.917 78.8027L708.656 133.955L708.649 135.501L707.104 135.498L642.618 135.373L640.376 142.282C671.969 165.491 689.154 202.584 689.154 244.259C689.154 279.296 676.813 310.895 654.072 333.836C631.326 356.782 598.272 370.967 557.031 371.358C520.667 371.704 488.391 361.151 464.801 339.828C441.196 318.492 426.444 286.51 424.881 244.315C422.279 174.078 475.214 117.158 557.017 117.158C577.346 117.158 595.628 120.538 611.654 126.685V77.2451H708.924L708.917 78.8027ZM557.012 163.652C533.709 163.652 515.727 172.712 503.6 187.427C491.502 202.106 485.324 222.294 485.324 244.45C485.324 266.618 491.702 286.804 503.895 301.478C516.113 316.182 534.09 325.246 557.012 325.246C580.124 325.246 598.103 316.183 610.276 301.473C622.421 286.796 628.699 266.609 628.699 244.45C628.699 222.326 623.02 202.136 611.16 187.444C599.449 172.937 581.829 163.94 558.145 163.659L557.012 163.652Z" fill="white"/>
<path d="M708.917 78.8027L710.467 78.8101V78.8095L708.917 78.8027ZM708.656 133.955L707.106 133.948V133.948L708.656 133.955ZM708.649 135.501L708.646 137.051L710.193 137.054L710.199 135.508L708.649 135.501ZM707.104 135.498L707.101 137.048H707.101L707.104 135.498ZM642.618 135.373L642.621 133.823L641.492 133.821L641.144 134.895L642.618 135.373ZM640.376 142.282L638.902 141.804L638.556 142.869L639.458 143.531L640.376 142.282ZM689.154 244.259L690.704 244.259V244.259H689.154ZM654.072 333.836L655.173 334.927H655.173L654.072 333.836ZM557.031 371.358L557.017 369.808H557.017L557.031 371.358ZM464.801 339.828L463.761 340.978H463.761L464.801 339.828ZM424.881 244.315L423.332 244.373H423.332L424.881 244.315ZM557.017 117.158V115.608V115.608V117.158ZM611.654 126.685L611.099 128.132L613.204 128.939V126.685H611.654ZM611.654 77.2451V75.6951H610.104V77.2451H611.654ZM708.924 77.2451L710.474 77.2519L710.481 75.6951H708.924V77.2451ZM557.012 163.652L557.021 162.102H557.012V163.652ZM503.6 187.427L502.403 186.441L502.403 186.441L503.6 187.427ZM485.324 244.45H483.774V244.45H485.324ZM503.895 301.478L502.702 302.468L502.702 302.468L503.895 301.478ZM557.012 325.246V326.796V326.796V325.246ZM610.276 301.473L611.471 302.461H611.471L610.276 301.473ZM628.699 244.45H630.249V244.45H628.699ZM611.16 187.444L612.366 186.471V186.471L611.16 187.444ZM558.145 163.659L558.163 162.109L558.154 162.109L558.145 163.659ZM708.917 78.8027L707.367 78.7954L707.106 133.948L708.656 133.955L710.206 133.962L710.467 78.8101L708.917 78.8027ZM708.656 133.955L707.106 133.948L707.099 135.494L708.649 135.501L710.199 135.508L710.206 133.962L708.656 133.955ZM708.649 135.501L708.652 133.951L707.106 133.948L707.104 135.498L707.101 137.048L708.646 137.051L708.649 135.501ZM707.104 135.498L707.107 133.948L642.621 133.823L642.618 135.373L642.615 136.923L707.101 137.048L707.104 135.498ZM642.618 135.373L641.144 134.895L638.902 141.804L640.376 142.282L641.85 142.761L644.092 135.851L642.618 135.373ZM640.376 142.282L639.458 143.531C670.607 166.414 687.604 203.016 687.604 244.259H689.154H690.704C690.704 202.152 673.331 164.569 641.294 141.033L640.376 142.282ZM689.154 244.259L687.604 244.259C687.604 278.927 675.398 310.122 652.971 332.745L654.072 333.836L655.173 334.927C678.229 311.669 690.704 279.665 690.704 244.259L689.154 244.259ZM654.072 333.836L652.971 332.745C630.545 355.368 597.898 369.421 557.017 369.808L557.031 371.358L557.046 372.908C598.646 372.514 632.106 358.196 655.173 334.927L654.072 333.836ZM557.031 371.358L557.017 369.808C520.956 370.151 489.084 359.688 465.84 338.678L464.801 339.828L463.761 340.978C487.698 362.614 520.378 373.257 557.046 372.908L557.031 371.358ZM464.801 339.828L465.84 338.678C442.596 317.668 427.98 286.108 426.43 244.258L424.881 244.315L423.332 244.373C424.908 286.913 439.796 319.316 463.761 340.978L464.801 339.828ZM424.881 244.315L426.43 244.258C423.863 174.961 476.029 118.708 557.017 118.708V117.158V115.608C474.4 115.608 420.696 173.195 423.332 244.373L424.881 244.315ZM557.017 117.158V118.708C577.173 118.708 595.265 122.059 611.099 128.132L611.654 126.685L612.209 125.237C595.991 119.017 577.518 115.608 557.017 115.608V117.158ZM611.654 126.685H613.204V77.2451H611.654H610.104V126.685H611.654ZM611.654 77.2451V78.7951H708.924V77.2451V75.6951H611.654V77.2451ZM708.924 77.2451L707.374 77.2383L707.367 78.7959L708.917 78.8027L710.467 78.8095L710.474 77.2519L708.924 77.2451ZM557.012 163.652V162.102C533.268 162.102 514.839 171.352 502.403 186.441L503.6 187.427L504.796 188.413C516.614 174.072 534.149 165.202 557.012 165.202V163.652ZM503.6 187.427L502.403 186.441C490.027 201.459 483.774 222.022 483.774 244.45H485.324H486.874C486.874 222.566 492.977 202.753 504.796 188.413L503.6 187.427ZM485.324 244.45H483.774C483.774 266.901 490.233 287.462 502.702 302.468L503.895 301.478L505.087 300.487C493.171 286.147 486.874 266.335 486.874 244.45H485.324ZM503.895 301.478L502.702 302.468C515.225 317.538 533.644 326.796 557.012 326.796V325.246V323.696C534.537 323.696 517.002 314.827 505.087 300.487L503.895 301.478ZM557.012 325.246V326.796C580.568 326.796 598.992 317.541 611.471 302.461L610.276 301.473L609.082 300.484C597.215 314.825 579.68 323.696 557.012 323.696V325.246ZM610.276 301.473L611.471 302.461C623.893 287.448 630.249 266.887 630.249 244.45H628.699H627.149C627.149 266.331 620.949 286.144 609.082 300.484L610.276 301.473ZM628.699 244.45H630.249C630.249 222.082 624.509 201.514 612.366 186.471L611.16 187.444L609.954 188.418C621.53 202.759 627.149 222.569 627.149 244.45H628.699ZM611.16 187.444L612.366 186.471C600.341 171.573 582.269 162.395 558.163 162.109L558.145 163.659L558.126 165.209C581.389 165.485 598.557 174.3 609.954 188.418L611.16 187.444ZM558.145 163.659L558.154 162.109L557.021 162.102L557.012 163.652L557.002 165.202L558.135 165.209L558.145 163.659Z" fill="#92919F"/>
<path d="M510.527 403.484L511.411 462.855L591.45 462.412C591.45 462.412 628.836 470.332 636.75 503.753C634.989 556.528 634.995 611.946 634.995 611.946C634.995 611.946 707.129 574.139 707.129 527.94C707.129 481.75 707.57 508.146 706.683 484.84C705.796 461.534 664.021 404.355 614.325 403.918C564.632 403.484 510.527 403.484 510.527 403.484Z" fill="white" stroke="#92919F" stroke-width="3.1"/>
<path d="M882.508 119.482C929.193 119.482 963.551 135.459 986.218 161.439C1008.86 187.388 1019.68 223.144 1019.68 262.471C1019.68 301.828 1007.77 337.58 984.607 363.513C961.422 389.469 927.079 405.458 882.508 405.458C837.554 405.458 803.209 389.471 780.118 363.51C757.051 337.574 745.336 301.821 745.336 262.471C745.336 223.125 756.751 187.371 779.674 161.432C802.621 135.464 836.971 119.482 882.508 119.482ZM882.122 165.978C855.863 165.978 836.881 176.817 824.523 194.386C812.217 211.881 806.563 235.921 806.562 262.275C806.563 288.652 812.712 312.688 825.259 330.174C837.848 347.719 856.816 358.571 882.122 358.571C907.429 358.571 926.398 347.719 938.987 330.174C951.535 312.688 957.684 288.652 957.685 262.275C957.685 235.934 952.227 211.895 940.017 194.396C927.943 177.093 909.356 166.321 883.365 165.985L882.122 165.978Z" fill="white"/>
<path d="M882.508 119.482V117.932V117.932V119.482ZM986.218 161.439L987.386 160.42V160.42L986.218 161.439ZM1019.68 262.471H1021.23V262.471H1019.68ZM984.607 363.513L985.763 364.545L985.763 364.545L984.607 363.513ZM882.508 405.458V407.008V407.008V405.458ZM780.118 363.51L778.96 364.54H778.96L780.118 363.51ZM745.336 262.471H743.786V262.471H745.336ZM779.674 161.432L778.512 160.405L778.512 160.405L779.674 161.432ZM882.122 165.978L882.132 164.428H882.122V165.978ZM824.523 194.386L823.256 193.494L823.256 193.494L824.523 194.386ZM806.562 262.275H805.013V262.275H806.562ZM825.259 330.174L823.999 331.077L823.999 331.077L825.259 330.174ZM882.122 358.571V360.121V360.121V358.571ZM938.987 330.174L940.247 331.077H940.247L938.987 330.174ZM957.685 262.275H959.235V262.275H957.685ZM940.017 194.396L941.288 193.509L941.288 193.509L940.017 194.396ZM883.365 165.985L883.385 164.435L883.375 164.435L883.365 165.985ZM882.508 119.482V121.032C928.814 121.032 962.72 136.864 985.05 162.458L986.218 161.439L987.386 160.42C964.382 134.054 929.572 117.932 882.508 117.932V119.482ZM986.218 161.439L985.05 162.458C1007.38 188.053 1018.13 223.412 1018.13 262.471H1019.68H1021.23C1021.23 222.876 1010.33 186.722 987.386 160.42L986.218 161.439ZM1019.68 262.471H1018.13C1018.13 301.524 1006.31 336.884 983.451 362.48L984.607 363.513L985.763 364.545C1009.23 338.275 1021.23 302.131 1021.23 262.471H1019.68ZM984.607 363.513L983.451 362.48C960.589 388.076 926.683 403.908 882.508 403.908V405.458V407.008C927.476 407.008 962.256 390.863 985.763 364.545L984.607 363.513ZM882.508 405.458V403.908C837.947 403.908 804.042 388.075 781.276 362.48L780.118 363.51L778.96 364.54C802.376 390.867 837.16 407.008 882.508 407.008V405.458ZM780.118 363.51L781.276 362.48C758.511 336.884 746.886 301.524 746.886 262.471H745.336H743.786C743.786 302.118 755.59 338.264 778.96 364.54L780.118 363.51ZM745.336 262.471H746.886C746.886 223.412 758.217 188.053 780.835 162.458L779.674 161.432L778.512 160.405C755.285 186.689 743.786 222.838 743.786 262.471H745.336ZM779.674 161.432L780.835 162.458C803.454 136.863 837.359 121.032 882.508 121.032V119.482V117.932C836.582 117.932 801.789 134.065 778.512 160.405L779.674 161.432ZM882.122 165.978V164.428C855.37 164.428 835.911 175.503 823.256 193.494L824.523 194.386L825.791 195.278C837.852 178.132 856.355 167.528 882.122 167.528V165.978ZM824.523 194.386L823.256 193.494C810.703 211.34 805.013 235.731 805.013 262.275H806.562H808.112C808.113 236.11 813.731 212.423 825.791 195.277L824.523 194.386ZM806.562 262.275H805.013C805.013 288.866 811.208 313.251 823.999 331.077L825.259 330.174L826.518 329.27C814.216 312.125 808.113 288.438 808.112 262.275H806.562ZM825.259 330.174L823.999 331.077C836.875 349.022 856.309 360.121 882.122 360.121V358.571V357.021C857.324 357.021 838.821 346.416 826.518 329.27L825.259 330.174ZM882.122 358.571V360.121C907.936 360.121 927.371 349.021 940.247 331.077L938.987 330.174L937.728 329.27C925.425 346.416 906.922 357.021 882.122 357.021V358.571ZM938.987 330.174L940.247 331.077C953.038 313.251 959.234 288.866 959.235 262.275H957.685H956.135C956.134 288.438 950.031 312.125 937.728 329.27L938.987 330.174ZM957.685 262.275H959.235C959.235 235.754 953.745 211.362 941.288 193.509L940.017 194.396L938.745 195.282C950.709 212.428 956.135 236.113 956.135 262.275H957.685ZM940.017 194.396L941.288 193.509C928.919 175.782 909.859 164.777 883.385 164.435L883.365 165.985L883.345 167.535C908.853 167.864 926.967 178.403 938.745 195.282L940.017 194.396ZM883.365 165.985L883.375 164.435L882.132 164.428L882.122 165.978L882.112 167.528L883.355 167.535L883.365 165.985Z" fill="#92919F"/>
<path d="M1065.12 167.084L1109.28 127.463L1221.68 127.912L1221.55 174.933L1122.32 175.283V398.155L1063.52 398.223L1065.12 167.084Z" fill="white" stroke="#92919F" stroke-width="3.1"/>
<path d="M1345.19 82.0227L1398.15 81.8956L1447.75 7.75603L1377.87 7.49561L1345.19 82.0227Z" fill="white" stroke="#92919F" stroke-width="3.1"/>
<path d="M1633.36 261.823L1540.68 125.78L1616.63 125.587L1805.6 398.223H1732.75L1673.74 314.687L1545.23 519.142L1467.73 518.705L1633.36 261.823Z" fill="white" stroke="#92919F" stroke-width="3.1"/>
<path d="M1691.11 171.535L1733.09 230.562L1880.08 1.5498H1801.03L1691.11 171.535Z" fill="white" stroke="#92919F" stroke-width="3.1"/>
<path d="M1350.62 117.151C1385.92 117.151 1417.64 135.054 1439.8 163.534L1439.79 128.523L1439.79 126.971L1441.34 126.973L1497.41 127.054L1498.95 127.056L1498.95 128.604L1498.84 398.571V400.126L1497.28 400.12L1441.39 399.925L1439.85 399.92V398.375L1439.84 360.301C1417.68 388.849 1385.95 406.799 1350.61 406.621C1311.97 406.425 1281.52 390.176 1260.78 363.947C1240.06 337.753 1229.07 301.691 1229.07 261.885C1229.07 182.222 1283.25 117.151 1350.62 117.151ZM1367.91 164.947C1342.3 165.077 1323.02 175.894 1310.18 193.367C1297.39 210.786 1291.07 234.714 1291.07 261.047C1291.07 287.344 1296.66 311.34 1309.1 328.805C1321.6 346.344 1340.9 357.147 1367.92 357.147C1392.27 357.147 1411.54 346.313 1424.69 328.837C1437.8 311.4 1444.77 287.412 1444.77 261.047C1444.77 234.736 1438.86 210.679 1426.25 193.188C1413.6 175.629 1394.3 164.815 1367.91 164.947Z" fill="white"/>
<path d="M1350.62 117.151V115.601V115.601V117.151ZM1439.8 163.534L1438.57 164.486L1441.35 168.051L1441.35 163.534L1439.8 163.534ZM1439.79 128.523L1441.34 128.523V128.522L1439.79 128.523ZM1439.79 126.971L1439.79 125.421L1438.24 125.419L1438.24 126.972L1439.79 126.971ZM1441.34 126.973L1441.35 125.423H1441.35L1441.34 126.973ZM1497.41 127.054L1497.4 128.604H1497.4L1497.41 127.054ZM1498.95 127.056L1500.5 127.057L1500.51 125.508L1498.96 125.506L1498.95 127.056ZM1498.95 128.604L1497.4 128.604V128.604L1498.95 128.604ZM1498.84 398.571L1497.29 398.571V398.571H1498.84ZM1498.84 400.126L1498.83 401.676L1500.39 401.682V400.126H1498.84ZM1497.28 400.12L1497.29 398.57H1497.29L1497.28 400.12ZM1441.39 399.925L1441.4 398.375H1441.39L1441.39 399.925ZM1439.85 399.92H1438.3V401.465L1439.84 401.47L1439.85 399.92ZM1439.85 398.375H1441.4V398.375L1439.85 398.375ZM1439.84 360.301L1441.39 360.301L1441.39 355.777L1438.61 359.35L1439.84 360.301ZM1350.61 406.621L1350.6 408.171H1350.6L1350.61 406.621ZM1260.78 363.947L1259.56 364.909H1259.56L1260.78 363.947ZM1229.07 261.885H1227.52V261.885H1229.07ZM1367.91 164.947L1367.91 163.397H1367.91L1367.91 164.947ZM1310.18 193.367L1308.93 192.45V192.45L1310.18 193.367ZM1291.07 261.047H1289.52V261.047H1291.07ZM1309.1 328.805L1307.84 329.704H1307.84L1309.1 328.805ZM1367.92 357.147V358.697V358.697V357.147ZM1424.69 328.837L1425.92 329.769V329.769L1424.69 328.837ZM1444.77 261.047H1446.32V261.047H1444.77ZM1426.25 193.188L1427.51 192.281V192.281L1426.25 193.188ZM1350.62 117.151V118.701C1385.37 118.701 1416.66 136.319 1438.57 164.486L1439.8 163.534L1441.02 162.582C1418.62 133.788 1386.47 115.601 1350.62 115.601V117.151ZM1439.8 163.534L1441.35 163.534L1441.34 128.523L1439.79 128.523L1438.24 128.524L1438.25 163.534L1439.8 163.534ZM1439.79 128.523L1441.34 128.522L1441.34 126.97L1439.79 126.971L1438.24 126.972L1438.24 128.524L1439.79 128.523ZM1439.79 126.971L1439.79 128.521L1441.34 128.523L1441.34 126.973L1441.35 125.423L1439.79 125.421L1439.79 126.971ZM1441.34 126.973L1441.34 128.523L1497.4 128.604L1497.41 127.054L1497.41 125.504L1441.35 125.423L1441.34 126.973ZM1497.41 127.054L1497.4 128.604L1498.95 128.606L1498.95 127.056L1498.96 125.506L1497.41 125.504L1497.41 127.054ZM1498.95 127.056L1497.4 127.055L1497.4 128.604L1498.95 128.604L1500.5 128.605L1500.5 127.057L1498.95 127.056ZM1498.95 128.604L1497.4 128.604L1497.29 398.571L1498.84 398.571L1500.39 398.572L1500.5 128.605L1498.95 128.604ZM1498.84 398.571H1497.29V400.126H1498.84H1500.39V398.571H1498.84ZM1498.84 400.126L1498.84 398.576L1497.29 398.57L1497.28 400.12L1497.28 401.67L1498.83 401.676L1498.84 400.126ZM1497.28 400.12L1497.29 398.57L1441.4 398.375L1441.39 399.925L1441.38 401.475L1497.28 401.67L1497.28 400.12ZM1441.39 399.925L1441.39 398.375L1439.85 398.37L1439.85 399.92L1439.84 401.47L1441.38 401.475L1441.39 399.925ZM1439.85 399.92H1441.4V398.375H1439.85H1438.3V399.92H1439.85ZM1439.85 398.375L1441.4 398.375L1441.39 360.301L1439.84 360.301L1438.29 360.301L1438.3 398.375L1439.85 398.375ZM1439.84 360.301L1438.61 359.35C1416.7 387.585 1385.39 405.246 1350.62 405.071L1350.61 406.621L1350.6 408.171C1386.5 408.351 1418.66 390.113 1441.06 361.251L1439.84 360.301ZM1350.61 406.621L1350.62 405.071C1312.45 404.877 1282.45 388.849 1261.99 362.986L1260.78 363.947L1259.56 364.909C1280.6 391.503 1311.48 407.973 1350.6 408.171L1350.61 406.621ZM1260.78 363.947L1261.99 362.986C1241.53 337.122 1230.62 301.422 1230.62 261.885H1229.07H1227.52C1227.52 301.96 1238.58 338.384 1259.56 364.909L1260.78 363.947ZM1229.07 261.885H1230.62C1230.62 182.809 1284.35 118.701 1350.62 118.701V117.151V115.601C1282.15 115.601 1227.52 181.634 1227.52 261.885H1229.07ZM1367.91 164.947L1367.91 163.397C1341.8 163.529 1322.06 174.581 1308.93 192.45L1310.18 193.367L1311.43 194.285C1323.98 177.207 1342.8 166.624 1367.92 166.497L1367.91 164.947ZM1310.18 193.367L1308.93 192.45C1295.89 210.21 1289.52 234.491 1289.52 261.047H1291.07H1292.62C1292.62 234.937 1298.89 211.363 1311.43 194.285L1310.18 193.367ZM1291.07 261.047H1289.52C1289.52 287.531 1295.14 311.884 1307.84 329.704L1309.1 328.805L1310.36 327.905C1298.17 310.796 1292.62 287.158 1292.62 261.047H1291.07ZM1309.1 328.805L1307.84 329.704C1320.64 347.673 1340.43 358.697 1367.92 358.697V357.147V355.597C1341.38 355.597 1322.55 345.015 1310.36 327.905L1309.1 328.805ZM1367.92 357.147V358.697C1392.78 358.697 1412.51 347.61 1425.92 329.769L1424.69 328.837L1423.45 327.905C1410.58 345.015 1391.75 355.597 1367.92 355.597V357.147ZM1424.69 328.837L1425.92 329.769C1439.28 312.004 1446.32 287.667 1446.32 261.047H1444.77H1443.22C1443.22 287.158 1436.31 310.796 1423.45 327.905L1424.69 328.837ZM1444.77 261.047H1446.32C1446.32 234.534 1440.37 210.121 1427.51 192.281L1426.25 193.188L1425 194.094C1437.35 211.236 1443.22 234.939 1443.22 261.047H1444.77ZM1426.25 193.188L1427.51 192.281C1414.56 174.308 1394.79 163.262 1367.91 163.397L1367.91 164.947L1367.92 166.497C1393.82 166.367 1412.65 176.951 1425 194.094L1426.25 193.188Z" fill="#92919F"/>
</svg>
